<svg id="Layer_1" data-name="Layer 1" xmlns="http://www.w3.org/2000/svg" viewBox="0 0 1500 461.33"><defs><style>.cls-1{fill:#1ed760;}</style></defs><title>Potato</title><path class="cls-1" d="M745.73,141.09q-20.47-17.54-55.82-17.54H623.27V334h36.81V257.12h29.83q35.34,0,55.82-17.54t20.45-49.12Q766.18,158.62,745.73,141.09ZM719,216.78q-10.08,9.37-27.33,9.36H660.08v-71.6h30.11q18.13,0,28.51,9.34t10.37,26.59Q729.07,207.43,719,216.78Z"/><path class="cls-1" d="M897.75,205.82Q876.11,184,842.81,184q-33,0-54.8,21.93t-21.79,54.94q0,33,21.79,54.94t54.8,21.93q33.31,0,54.94-21.79t21.63-55.08Q919.37,227.6,897.75,205.82Zm-24.4,88.54q-12.15,13-30.54,13t-30.54-13q-12.15-13-12.13-33.46t12.13-33.46q12.12-13,30.54-13t30.54,13q12.12,13,12.13,33.46T873.35,294.36Z"/><path class="cls-1" d="M993.11,307.37q-20.17,0-20.17-24.26V216.2h41.52V187.85H972.94V144H938.47v43.85h-22.8V216.2h22.22v64.58c0,1.76,0,4.25.14,7.46s.14,5.61.14,7.16q1.17,21.91,14.32,32.14t31.86,10.23q22.2,0,35.07-6.72V301.25Q1005.39,307.38,993.11,307.37Z"/><path class="cls-1" d="M1138.37,187.85l-.58,13.73.58,10.23h-.58q-5.57-11.4-19.59-19.59a59.28,59.28,0,0,0-30.38-8.18q-28.94,0-48.22,21.19t-19.29,55.68q0,34.2,19.29,55.52t48.22,21.35a57.58,57.58,0,0,0,30.54-8.48q13.86-8.47,19.43-20.75h.58l-.58,10.23.58,15.18h32.74V187.85Zm-15.92,107.39q-12.15,12.15-28.21,12.13-17.84,0-28.93-13t-11.11-33.46q0-20.74,11.11-33.62t28.93-12.85q16.07,0,28.21,12.13t12.13,34.33Q1134.58,283.11,1122.45,295.24Z"/><path class="cls-1" d="M1260.52,307.37q-20.17,0-20.15-24.26V216.2h41.5V187.85h-41.5V144h-34.49v43.85h-22.8V216.2h22.22v64.58c0,1.76,0,4.25.14,7.46s.14,5.61.14,7.16q1.17,21.91,14.32,32.14t31.86,10.23q22.2,0,35.07-6.72V301.25Q1272.8,307.38,1260.52,307.37Z"/><path class="cls-1" d="M1420.69,205.82Q1399,184,1365.74,184q-33,0-54.8,21.93t-21.77,54.94q0,33,21.77,54.94t54.8,21.93q33.31,0,54.94-21.79t21.63-55.08Q1442.31,227.6,1420.69,205.82Zm-24.4,88.54q-12.12,13-30.54,13t-30.54-13q-12.12-13-12.13-33.46t12.13-33.46q12.12-13,30.54-13t30.54,13q12.12,13,12.13,33.46T1396.29,294.36Z"/><path class="cls-1" d="M320.88,222.87a286.51,286.51,0,0,1-45.6,155.41,4.58,4.58,0,0,0,4,7.05h0A43.1,43.1,0,0,0,312,368.25a261.89,261.89,0,0,0,32.87-257.09,43.34,43.34,0,0,0-32.22-25.94q-10.13-1.87-20.32-3.4a4.57,4.57,0,0,0-4.73,6.65A286.44,286.44,0,0,1,320.88,222.87Z"/><path class="cls-1" d="M382.23,102l-.38-.11a4.91,4.91,0,0,0-6,6.45,291.83,291.83,0,0,1-27.82,260.43,4.55,4.55,0,0,0,4.8,6.92h0a68.17,68.17,0,0,0,36.31-21.53,206.33,206.33,0,0,0,36.3-213A66.82,66.82,0,0,0,382.23,102Z"/><path class="cls-1" d="M496.6,166.47a138,138,0,0,0-32.68-31.23,4.47,4.47,0,0,0-6.77,5.13,236.29,236.29,0,0,1-19,196.78,4.45,4.45,0,0,0,5.79,6.26h0C468,331.55,488.76,315,503.56,292,526.9,255.73,523.49,202.34,496.6,166.47Z"/><path class="cls-1" d="M252.74,87.8a24.14,24.14,0,0,0-19.65-11.51q-11.85-.42-23.79-.25c-37.22.59-73,8.88-105.12,29.2-33,20.89-49.62,50.84-46,89.64,4.21,45.2,13.82,89.26,40.45,127.56,4.48,6.44,10,12.19,15,18.24a4.63,4.63,0,0,0,.36.38c24.92,23.86,55.23,36.78,88.72,41q6.4.8,12.78,1.43a31.73,31.73,0,0,0,29.19-13.22A257.76,257.76,0,0,0,252.74,87.8Z"/></svg>