<svg id="Layer_1" data-name="Layer 1" xmlns="http://www.w3.org/2000/svg" viewBox="0 0 1500 461.33"><defs><style>.cls-1{fill:#1ed760;}.cls-2{fill:#fff;}</style></defs><title>WhitePotato</title><rect class="cls-1" width="1500" height="461.33"/><path class="cls-2" d="M747.88,186.24q-10.15-8.7-27.68-8.7h-33V281.89h18.25V243.78H720.2q17.53,0,27.68-8.7T758,210.73Q758,194.94,747.88,186.24Zm-13.27,37.54q-5,4.65-13.55,4.64H705.41V192.91h14.93q9,0,14.14,4.63t5.14,13.19Q739.62,219.14,734.61,223.78Z"/><path class="cls-2" d="M823.27,218.34q-10.73-10.8-27.25-10.8t-27.18,10.87Q758,229.28,758,245.66t10.8,27.25q10.79,10.88,27.18,10.87T823.27,273Q834,262.19,834,245.66T823.27,218.34Zm-12.1,43.91a21,21,0,0,1-30.3,0q-6-6.44-6-16.59t6-16.59a21,21,0,0,1,30.3,0q6,6.44,6,16.59T811.17,262.25Z"/><path class="cls-2" d="M870.57,268.7q-10,0-10-12V223.49h20.59V209.43H860.56V187.68h-17.1v21.75H832.16v14.06h11v32c0,.87,0,2.11.07,3.7s.07,2.78.07,3.55q.58,10.86,7.1,15.94a25,25,0,0,0,15.8,5.08q11,0,17.39-3.33V265.67A32.71,32.71,0,0,1,870.57,268.7Z"/><path class="cls-2" d="M942.61,209.43l-.29,6.81.29,5.08h-.29q-2.76-5.65-9.72-9.72a29.4,29.4,0,0,0-15.07-4.06A31,31,0,0,0,893.62,218q-9.57,10.51-9.57,27.61t9.57,27.53a30.89,30.89,0,0,0,23.91,10.59,28.56,28.56,0,0,0,15.15-4.2,23.65,23.65,0,0,0,9.64-10.29h.29l-.29,5.08.29,7.53h16.24V209.43Zm-7.9,53.26a19.18,19.18,0,0,1-14,6,18,18,0,0,1-14.35-6.45q-5.52-6.44-5.51-16.59T906.37,229a18.07,18.07,0,0,1,14.35-6.37,19.18,19.18,0,0,1,14,6q6,6,6,17T934.71,262.69Z"/><path class="cls-2" d="M1003.19,268.7q-10,0-10-12V223.49h20.58V209.43H993.19V187.68H976.09v21.75H964.78v14.06h11v32c0,.87,0,2.11.07,3.7s.07,2.78.07,3.55q.58,10.86,7.1,15.94a25,25,0,0,0,15.8,5.08q11,0,17.39-3.33V265.67A32.67,32.67,0,0,1,1003.19,268.7Z"/><path class="cls-2" d="M1082.62,218.34q-10.73-10.8-27.25-10.8t-27.18,10.87q-10.79,10.86-10.79,27.25t10.79,27.25q10.8,10.88,27.18,10.87t27.25-10.8q10.73-10.79,10.73-27.32T1082.62,218.34Zm-12.1,43.91a21,21,0,0,1-30.3,0q-6-6.44-6-16.59t6-16.59a21,21,0,0,1,30.3,0q6,6.44,6,16.59T1070.51,262.25Z"/><path class="cls-2" d="M537.19,226.8a142.09,142.09,0,0,1-22.61,77.07,2.27,2.27,0,0,0,2,3.5h0a21.37,21.37,0,0,0,16.19-8.47,129.88,129.88,0,0,0,16.3-127.5,21.5,21.5,0,0,0-16-12.87q-5-.93-10.08-1.69a2.26,2.26,0,0,0-2.35,3.3A142.06,142.06,0,0,1,537.19,226.8Z"/><path class="cls-2" d="M567.61,166.84l-.19-.05a2.43,2.43,0,0,0-3,3.2,144.73,144.73,0,0,1-13.8,129.15,2.25,2.25,0,0,0,2.38,3.43h0a33.81,33.81,0,0,0,18-10.68,102.33,102.33,0,0,0,18-105.65A33.14,33.14,0,0,0,567.61,166.84Z"/><path class="cls-2" d="M624.33,198.83a68.44,68.44,0,0,0-16.21-15.49,2.21,2.21,0,0,0-3.36,2.54,117.19,117.19,0,0,1-9.43,97.59,2.21,2.21,0,0,0,2.87,3.1h0c11.93-5.88,22.24-14.09,29.58-25.5C639.36,243.09,637.67,216.61,624.33,198.83Z"/><path class="cls-2" d="M503.39,159.81a12,12,0,0,0-9.75-5.71q-5.87-.21-11.8-.13c-18.46.29-36.19,4.4-52.13,14.48-16.39,10.36-24.61,25.21-22.81,44.46,2.09,22.42,6.85,44.27,20.06,63.26,2.22,3.19,4.94,6,7.44,9l.18.19c12.36,11.83,27.39,18.24,44,20.32q3.18.4,6.34.71a15.73,15.73,0,0,0,14.47-6.56,127.83,127.83,0,0,0,4-140.07Z"/></svg>