<svg id="Layer_1" data-name="Layer 1" xmlns="http://www.w3.org/2000/svg" viewBox="0 0 1500 1001.08"><defs><style>.cls-1{fill:#1ed760;}</style></defs><title>Artboard 3</title><path class="cls-1" d="M309.34,625.2q-31.42-26.92-85.69-26.92H121.37v323h56.5v-118h45.78q54.25,0,85.69-26.92T340.73,701Q340.73,652.12,309.34,625.2ZM268.28,741.39q-15.48,14.38-42,14.36H177.87V645.84h46.21q27.84,0,43.76,14.33T283.77,701Q283.77,727,268.28,741.39Z"/><path class="cls-1" d="M542.7,724.57q-33.21-33.44-84.34-33.44-50.71,0-84.13,33.66T340.8,809.13q0,50.71,33.44,84.34t84.13,33.66q51.13,0,84.34-33.44t33.2-84.55Q575.9,758,542.7,724.57ZM505.25,860.48q-18.65,20-46.89,20t-46.89-20q-18.65-19.94-18.62-51.36t18.62-51.36q18.6-20,46.89-20t46.89,20q18.6,19.94,18.62,51.36T505.25,860.48Z"/><path class="cls-1" d="M689.09,880.45q-31,0-31-37.24V740.5h63.73V697H658.13V629.67H605.21V697h-35V740.5h34.12v99.13c0,2.69.06,6.52.21,11.45s.21,8.61.21,11q1.79,33.63,22,49.34t48.91,15.71q34.08,0,53.84-10.32V871Q707.94,880.47,689.09,880.45Z"/><path class="cls-1" d="M912.06,697l-.89,21.07.89,15.71h-.89q-8.54-17.5-30.07-30.07a91,91,0,0,0-46.64-12.56q-44.42,0-74,32.52t-29.61,85.47q0,52.51,29.61,85.23t74,32.77a88.39,88.39,0,0,0,46.89-13q21.27-13,29.83-31.85h.89L911.18,898l.89,23.31h50.25V697ZM887.63,861.83q-18.65,18.65-43.3,18.62-27.38,0-44.41-20t-17.06-51.36q0-31.83,17.06-51.6t44.41-19.72q24.67,0,43.3,18.62t18.62,52.7Q906.25,843.21,887.63,861.83Z"/><path class="cls-1" d="M1099.58,880.45q-31,0-30.93-37.24V740.5h63.7V697h-63.7V629.67H1015.7V697h-35V740.5h34.12v99.13c0,2.69.06,6.52.21,11.45s.21,8.61.21,11q1.79,33.63,22,49.34t48.91,15.71q34.08,0,53.84-10.32V871Q1118.43,880.47,1099.58,880.45Z"/><path class="cls-1" d="M1345.43,724.57q-33.21-33.44-84.34-33.44-50.71,0-84.13,33.66t-33.41,84.34q0,50.71,33.41,84.34t84.13,33.66q51.13,0,84.34-33.44t33.2-84.55Q1378.63,758,1345.43,724.57ZM1308,860.48q-18.6,20-46.89,20t-46.89-20q-18.6-19.94-18.62-51.36t18.62-51.36q18.6-20,46.89-20t46.89,20q18.6,19.94,18.62,51.36T1308,860.48Z"/><path class="cls-1" d="M799.86,299.43a439.8,439.8,0,0,1-70,238.56,7,7,0,0,0,6.2,10.83h0a66.16,66.16,0,0,0,50.13-26.23,402,402,0,0,0,50.45-394.64,66.54,66.54,0,0,0-49.46-39.83Q771.63,85.24,756,82.9a7,7,0,0,0-7.27,10.21A439.7,439.7,0,0,1,799.86,299.43Z"/><path class="cls-1" d="M894,113.85l-.58-.17a7.53,7.53,0,0,0-9.15,9.91,448,448,0,0,1-42.7,399.77A7,7,0,0,0,849,534h0a104.64,104.64,0,0,0,55.74-33.05,316.73,316.73,0,0,0,55.72-327A102.58,102.58,0,0,0,894,113.85Z"/><path class="cls-1" d="M1069.59,212.84a211.84,211.84,0,0,0-50.16-47.93,6.86,6.86,0,0,0-10.39,7.87,362.72,362.72,0,0,1-29.2,302.06,6.83,6.83,0,0,0,8.89,9.61h0c36.94-18.19,68.83-43.6,91.55-78.91C1116.1,349.87,1110.88,267.9,1069.59,212.84Z"/><path class="cls-1" d="M695.26,92.09a37.06,37.06,0,0,0-30.17-17.67q-18.18-.65-36.51-.39c-57.13.91-112,13.63-161.36,44.82-50.73,32.06-76.17,78-70.62,137.61,6.47,69.39,21.21,137,62.1,195.81,6.88,9.89,15.29,18.71,23,28a7.11,7.11,0,0,0,.55.59c38.25,36.63,84.79,56.46,136.19,62.89q9.83,1.23,19.62,2.19a48.7,48.7,0,0,0,44.8-20.29A395.68,395.68,0,0,0,695.26,92.09Z"/></svg>